<svg width="1529" height="1080" viewBox="0 0 1529 1080" fill="none" xmlns="http://www.w3.org/2000/svg">
<rect x="216.5" y="102.5" width="294" height="126" rx="4.5" stroke="#EBEDFF"/>
<path d="M306.24 173H289.47V150.59H292.11V170.36H306.24V173ZM331.94 173H329L325.34 165.29H314.54L311 173H308.06L318.74 150.59H321.44L331.94 173ZM324.17 162.68L320.06 153.8L315.86 162.68H324.17ZM363.081 150.59L355.821 173H353.391L348.531 155.72L344.001 173H341.541L333.891 150.59H336.621L342.621 168.32L347.211 150.59H349.731L354.711 168.32L360.351 150.59H363.081ZM386.691 150.59L377.061 162.68V173H374.421V162.68L364.911 150.59H368.331L375.801 160.07L383.271 150.59H386.691ZM411.674 173H392.534V150.59H411.014V153.23H395.204V160.07H403.514V162.71H395.204V170.36H411.674V173ZM439.291 157.19C439.291 159.14 438.451 161.09 436.951 162.35C435.841 163.28 434.911 163.49 433.531 163.73L438.751 173H435.721L430.531 163.73H421.621V173H418.981V150.59H430.201C433.831 150.59 434.851 150.71 436.561 151.82C438.301 152.96 439.291 155.15 439.291 157.19ZM436.651 157.22C436.651 154.28 434.371 153.23 431.761 153.23H421.621V161.09H431.281C433.291 161.09 434.221 161.03 435.121 160.4C436.111 159.71 436.651 158.42 436.651 157.22Z" fill="#EBEDFF" fill-opacity="0.9"/>
<rect x="785.5" y="290.5" width="573" height="175" rx="4.5" stroke="#EBEDFF"/>
<path d="M949.878 348.78C949.878 355.47 945.048 360 939.078 360H928.488V337.62H939.078C945.588 337.62 949.878 342.06 949.878 348.78ZM947.808 348.84C947.808 342.81 944.058 339.66 939.078 339.66H930.558V357.96H939.078C943.788 357.96 947.808 354.93 947.808 348.84ZM960.102 360H958.122V337.65H960.102V360ZM988.875 353.58C988.875 359.07 982.365 360.51 978.045 360.51C976.095 360.51 974.175 360.21 972.345 359.55C970.065 358.74 968.775 357.6 967.065 355.92L968.475 354.45C971.355 357.39 974.145 358.44 978.225 358.44C981.225 358.44 986.805 357.66 986.805 353.61C986.805 350.7 983.835 349.53 981.765 349.35C980.535 349.23 977.565 349.26 975.855 349.23C972.465 349.17 968.685 347.82 968.685 343.83C968.685 340.47 971.505 338.49 974.445 337.68C975.825 337.29 977.265 337.14 978.675 337.14C982.155 337.14 984.825 338.28 987.585 340.35L986.325 341.88C983.595 340.14 981.645 339.15 978.315 339.15C977.355 339.15 976.395 339.21 975.435 339.45C973.335 339.93 970.725 341.31 970.725 343.8C970.725 346.56 973.665 347.13 975.855 347.19C977.625 347.25 980.295 347.25 981.945 347.37C985.695 347.67 988.875 349.77 988.875 353.58ZM1016.93 355.92C1013.78 358.86 1010.36 360.51 1006.01 360.51C999.346 360.51 993.946 355.62 993.946 348.84C993.946 341.88 999.316 337.14 1006.13 337.14C1010.45 337.14 1013.81 338.37 1016.84 341.49L1015.46 342.96C1012.88 340.32 1010 339.18 1006.31 339.18C1000.58 339.18 995.986 342.9 995.986 348.84C995.986 354.51 1000.61 358.44 1006.13 358.44C1009.82 358.44 1012.85 356.88 1015.52 354.42L1016.93 355.92ZM1046.56 348.84C1046.56 355.56 1041.19 360.48 1034.59 360.48C1027.9 360.48 1022.47 355.59 1022.47 348.78C1022.47 342.12 1027.9 337.17 1034.44 337.17C1041.1 337.17 1046.56 342.03 1046.56 348.84ZM1044.52 348.9C1044.52 343.32 1040.08 339.18 1034.56 339.18C1029.16 339.18 1024.48 343.14 1024.48 348.72C1024.48 354.42 1028.89 358.44 1034.5 358.44C1039.99 358.44 1044.52 354.54 1044.52 348.9ZM1074.25 337.65L1063.27 360H1061.29L1050.52 337.65H1052.68L1062.28 357.42L1072 337.65H1074.25ZM1098.91 360H1079.74V337.65H1098.19V339.75H1081.75V347.43H1090.72V349.47H1081.75V357.96H1098.91V360ZM1126.19 344.07C1126.19 345.96 1125.26 348.21 1123.7 349.32C1122.5 350.16 1120.85 350.49 1120.04 350.55L1125.71 360H1123.34L1117.7 350.55H1107.95V360H1105.85V337.62H1119.02C1121.27 337.62 1121.93 337.8 1123.25 338.52C1125.11 339.54 1126.19 342.12 1126.19 344.07ZM1124.15 343.98C1124.15 342.51 1123.58 341.16 1122.29 340.38C1121.51 339.9 1120.7 339.69 1118.12 339.69H1107.95V348.51H1118.12C1120.49 348.51 1121.54 348.36 1122.44 347.7C1123.58 346.86 1124.15 345.36 1124.15 343.98ZM1152.52 337.65L1142.53 350.25V360H1140.46V350.25L1130.29 337.65H1132.96L1141.51 348.27L1149.94 337.65H1152.52ZM1192.5 348.84C1192.5 355.56 1187.13 360.48 1180.53 360.48C1173.84 360.48 1168.41 355.59 1168.41 348.78C1168.41 342.12 1173.84 337.17 1180.38 337.17C1187.04 337.17 1192.5 342.03 1192.5 348.84ZM1190.46 348.9C1190.46 343.32 1186.02 339.18 1180.5 339.18C1175.1 339.18 1170.42 343.14 1170.42 348.72C1170.42 354.42 1174.83 358.44 1180.44 358.44C1185.93 358.44 1190.46 354.54 1190.46 348.9ZM1218.05 339.69H1201.79V347.82H1212.11V349.89H1201.79V360H1199.78V337.65H1218.05V339.69ZM903.484 389.65L896.254 412H894.214L889.084 393.61L884.044 412H882.004L874.744 389.65H876.904L882.994 408.22L888.064 389.65H890.134L895.294 408.22L901.324 389.65H903.484ZM928.144 412H908.974V389.65H927.424V391.75H910.984V399.43H919.954V401.47H910.984V409.96H928.144V412ZM955.611 405.79C955.611 407.68 954.741 409.48 953.241 410.65C951.681 411.88 950.211 412 948.291 412H935.121V389.65H948.291C951.771 389.65 954.591 392.08 954.591 395.65C954.591 397.66 953.721 399.01 952.341 400.36C954.381 401.56 955.611 403.36 955.611 405.79ZM952.551 395.62C952.551 393.1 950.691 391.72 948.291 391.72H937.161V399.52H948.291C950.661 399.52 952.551 398.11 952.551 395.62ZM953.541 405.79C953.541 402.7 951.021 401.59 948.291 401.59H937.161V409.93H948.291C949.761 409.93 951.081 409.9 952.191 408.88C953.091 408.1 953.541 406.96 953.541 405.79ZM996.601 400.78C996.601 407.47 991.771 412 985.801 412H975.211V389.62H985.801C992.311 389.62 996.601 394.06 996.601 400.78ZM994.531 400.84C994.531 394.81 990.781 391.66 985.801 391.66H977.281V409.96H985.801C990.511 409.96 994.531 406.93 994.531 400.84ZM1023.38 412H1004.21V389.65H1022.66V391.75H1006.22V399.43H1015.19V401.47H1006.22V409.96H1023.38V412ZM1051.06 389.65L1040.08 412H1038.1L1027.33 389.65H1029.49L1039.09 409.42L1048.81 389.65H1051.06ZM1075.72 412H1056.55V389.65H1075V391.75H1058.56V399.43H1067.53V401.47H1058.56V409.96H1075.72V412ZM1099.5 412H1082.85V389.65H1084.89V409.93H1099.5V412ZM1128.05 400.84C1128.05 407.56 1122.68 412.48 1116.08 412.48C1109.39 412.48 1103.96 407.59 1103.96 400.78C1103.96 394.12 1109.39 389.17 1115.93 389.17C1122.59 389.17 1128.05 394.03 1128.05 400.84ZM1126.01 400.9C1126.01 395.32 1121.57 391.18 1116.05 391.18C1110.65 391.18 1105.97 395.14 1105.97 400.72C1105.97 406.42 1110.38 410.44 1115.99 410.44C1121.48 410.44 1126.01 406.54 1126.01 400.9ZM1154.63 396.1C1154.63 398.11 1153.79 400.09 1152.14 401.35C1151.03 402.19 1148.87 402.43 1147.1 402.43H1137.2V412H1135.13V389.65H1148.09C1149.83 389.65 1151.18 389.83 1152.53 391.03C1153.97 392.29 1154.63 394.21 1154.63 396.1ZM1152.56 396.04C1152.56 393.1 1151 391.69 1148.09 391.69H1137.2V400.36H1147.1C1149.02 400.36 1150.13 400.18 1150.85 399.73C1152.08 398.98 1152.56 397.42 1152.56 396.04ZM1184.99 412H1182.95V393.64L1173.89 408.85L1164.86 393.64V412H1162.85V389.62H1164.86L1173.89 404.89L1183.04 389.62H1184.99V412ZM1213.52 412H1194.35V389.65H1212.8V391.75H1196.36V399.43H1205.33V401.47H1196.36V409.96H1213.52V412ZM1241.47 412H1239.4L1223.65 392.86V412H1221.61V389.65H1223.65L1239.43 408.73V389.65H1241.47V412ZM1268.06 391.66H1259.6V412H1257.56V391.66H1248.98V389.62H1268.06V391.66Z" fill="#EBEDFF"/>
<rect x="697.5" y="749.5" width="573" height="175" rx="4.5" stroke="#EBEDFF"/>
<path d="M830.712 823.65L823.482 846H821.442L816.312 827.61L811.272 846H809.232L801.972 823.65H804.132L810.222 842.22L815.292 823.65H817.362L822.522 842.22L828.552 823.65H830.712ZM855.372 846H836.202V823.65H854.652V825.75H838.212V833.43H847.182V835.47H838.212V843.96H855.372V846ZM882.839 839.79C882.839 841.68 881.969 843.48 880.469 844.65C878.909 845.88 877.439 846 875.519 846H862.349V823.65H875.519C878.999 823.65 881.819 826.08 881.819 829.65C881.819 831.66 880.949 833.01 879.569 834.36C881.609 835.56 882.839 837.36 882.839 839.79ZM879.779 829.62C879.779 827.1 877.919 825.72 875.519 825.72H864.389V833.52H875.519C877.889 833.52 879.779 832.11 879.779 829.62ZM880.769 839.79C880.769 836.7 878.249 835.59 875.519 835.59H864.389V843.93H875.519C876.989 843.93 878.309 843.9 879.419 842.88C880.319 842.1 880.769 840.96 880.769 839.79ZM923.829 834.78C923.829 841.47 918.999 846 913.029 846H902.439V823.62H913.029C919.539 823.62 923.829 828.06 923.829 834.78ZM921.759 834.84C921.759 828.81 918.009 825.66 913.029 825.66H904.509V843.96H913.029C917.739 843.96 921.759 840.93 921.759 834.84ZM950.613 846H931.443V823.65H949.893V825.75H933.453V833.43H942.423V835.47H933.453V843.96H950.613V846ZM978.29 823.65L967.31 846H965.33L954.56 823.65H956.72L966.32 843.42L976.04 823.65H978.29ZM1002.95 846H983.78V823.65H1002.23V825.75H985.79V833.43H994.76V835.47H985.79V843.96H1002.95V846ZM1026.73 846H1010.08V823.65H1012.12V843.93H1026.73V846ZM1055.28 834.84C1055.28 841.56 1049.91 846.48 1043.31 846.48C1036.62 846.48 1031.19 841.59 1031.19 834.78C1031.19 828.12 1036.62 823.17 1043.16 823.17C1049.82 823.17 1055.28 828.03 1055.28 834.84ZM1053.24 834.9C1053.24 829.32 1048.8 825.18 1043.28 825.18C1037.88 825.18 1033.2 829.14 1033.2 834.72C1033.2 840.42 1037.61 844.44 1043.22 844.44C1048.71 844.44 1053.24 840.54 1053.24 834.9ZM1081.85 830.1C1081.85 832.11 1081.01 834.09 1079.36 835.35C1078.25 836.19 1076.09 836.43 1074.32 836.43H1064.42V846H1062.35V823.65H1075.31C1077.05 823.65 1078.4 823.83 1079.75 825.03C1081.19 826.29 1081.85 828.21 1081.85 830.1ZM1079.78 830.04C1079.78 827.1 1078.22 825.69 1075.31 825.69H1064.42V834.36H1074.32C1076.24 834.36 1077.35 834.18 1078.07 833.73C1079.3 832.98 1079.78 831.42 1079.78 830.04ZM1108.86 830.1C1108.86 832.11 1108.02 834.09 1106.37 835.35C1105.26 836.19 1103.1 836.43 1101.33 836.43H1091.43V846H1089.36V823.65H1102.32C1104.06 823.65 1105.41 823.83 1106.76 825.03C1108.2 826.29 1108.86 828.21 1108.86 830.1ZM1106.79 830.04C1106.79 827.1 1105.23 825.69 1102.32 825.69H1091.43V834.36H1101.33C1103.25 834.36 1104.36 834.18 1105.08 833.73C1106.31 832.98 1106.79 831.42 1106.79 830.04ZM1135.74 846H1116.57V823.65H1135.02V825.75H1118.58V833.43H1127.55V835.47H1118.58V843.96H1135.74V846ZM1163.03 830.07C1163.03 831.96 1162.1 834.21 1160.54 835.32C1159.34 836.16 1157.69 836.49 1156.88 836.55L1162.55 846H1160.18L1154.54 836.55H1144.79V846H1142.69V823.62H1155.86C1158.11 823.62 1158.77 823.8 1160.09 824.52C1161.95 825.54 1163.03 828.12 1163.03 830.07ZM1160.99 829.98C1160.99 828.51 1160.42 827.16 1159.13 826.38C1158.35 825.9 1157.54 825.69 1154.96 825.69H1144.79V834.51H1154.96C1157.33 834.51 1158.38 834.36 1159.28 833.7C1160.42 832.86 1160.99 831.36 1160.99 829.98Z" fill="#EBEDFF"/>
<rect x="126.5" y="527.5" width="554" height="160" rx="4.5" stroke="#EBEDFF"/>
<path d="M303.289 569.23H295.069V589H292.429V569.23H284.239V566.59H303.289V569.23ZM330.823 573.19C330.823 575.14 329.983 577.09 328.483 578.35C327.373 579.28 326.443 579.49 325.063 579.73L330.283 589H327.253L322.063 579.73H313.153V589H310.513V566.59H321.733C325.363 566.59 326.383 566.71 328.093 567.82C329.833 568.96 330.823 571.15 330.823 573.19ZM328.183 573.22C328.183 570.28 325.903 569.23 323.293 569.23H313.153V577.09H322.813C324.823 577.09 325.753 577.03 326.653 576.4C327.643 575.71 328.183 574.42 328.183 573.22ZM357.933 589H354.993L351.333 581.29H340.533L336.993 589H334.053L344.733 566.59H347.433L357.933 589ZM350.163 578.68L346.053 569.8L341.853 578.68H350.163ZM383.883 589H381.213L366.603 570.76V589H363.963V566.59H366.603L381.213 585.07V566.59H383.883V589ZM412.47 582.49C412.47 587.92 406.23 589.57 401.85 589.57C397.02 589.57 393.84 588.19 390.48 584.74L392.37 582.88C395.31 585.79 397.65 586.9 401.82 586.9C404.58 586.9 409.8 586.09 409.8 582.4C409.8 579.7 407.01 578.62 404.73 578.59L399.99 578.53C397.17 578.5 395.79 578.17 394.44 577.3C392.97 576.34 392.13 574.6 392.13 572.86C392.13 567.91 397.71 566.11 401.79 566.11C405.45 566.11 408.36 567.19 411.27 569.41L409.62 571.48C407.04 569.65 404.88 568.78 401.7 568.78C399.3 568.78 394.8 569.74 394.8 572.86C394.8 573.79 395.31 574.72 396.12 575.17C397.14 575.71 397.83 575.86 400.68 575.89L404.01 575.92C405.57 575.92 407.16 576.07 408.6 576.67C410.91 577.63 412.47 580 412.47 582.49ZM422.34 589H419.7V566.56H422.34V589ZM448.64 569.23H440.42V589H437.78V569.23H429.59V566.59H448.64V569.23ZM458.564 589H455.924V566.56H458.564V589ZM490.924 577.75C490.924 584.59 485.494 589.57 478.744 589.57C472.204 589.57 466.714 584.53 466.714 577.9C466.714 571.18 472.324 566.08 478.924 566.08C485.524 566.08 490.924 571.03 490.924 577.75ZM488.254 577.81C488.254 572.59 484.114 568.75 478.954 568.75C473.764 568.75 469.384 572.59 469.384 577.9C469.384 583.09 473.734 586.93 478.804 586.93C483.994 586.93 488.254 583.12 488.254 577.81ZM519.244 589H516.574L501.964 570.76V589H499.324V566.59H501.964L516.574 585.07V566.59H519.244V589ZM223.904 618.59L216.644 641H214.214L209.354 623.72L204.824 641H202.364L194.714 618.59H197.444L203.444 636.32L208.034 618.59H210.554L215.534 636.32L221.174 618.59H223.904ZM247.214 633.2C247.214 638.54 242.444 641.54 237.524 641.54C232.694 641.54 228.164 638.54 228.164 633.35V632.93C228.164 627.68 233.024 625.01 237.764 625.01C242.654 625.01 247.214 627.92 247.214 633.2ZM244.544 633.23C244.544 629.42 241.124 627.71 237.734 627.71C234.344 627.71 230.834 629.51 230.834 633.32C230.834 637.07 234.194 638.84 237.554 638.84C240.914 638.84 244.544 637.04 244.544 633.23ZM271.275 641H268.005L263.505 634.64H258.075V641H255.405V625.46H265.005C268.155 625.46 270.915 626.45 270.915 630.05C270.915 632.69 269.295 634.25 266.745 634.58L271.275 641ZM268.275 629.93C268.275 628.61 267.645 628.1 265.125 628.1H258.075V632H265.275C266.745 632 268.275 631.7 268.275 629.93ZM290.255 641H278.135V625.46H280.775V638.36H290.255V641ZM312.642 633.17C312.642 637.97 309.492 641 304.722 641H296.202V625.46H304.722C309.882 625.46 312.642 628.91 312.642 633.17ZM310.002 633.2C310.002 629.81 307.902 628.1 304.722 628.1H298.842V638.36H304.722C307.872 638.36 310.002 636.41 310.002 633.2ZM348.369 621.23H340.149V641H337.509V621.23H329.319V618.59H348.369V621.23ZM371.283 641H368.012L363.513 634.64H358.083V641H355.413V625.46H365.013C368.163 625.46 370.923 626.45 370.923 630.05C370.923 632.69 369.303 634.25 366.753 634.58L371.283 641ZM368.283 629.93C368.283 628.61 367.653 628.1 365.133 628.1H358.083V632H365.283C366.753 632 368.283 631.7 368.283 629.93ZM380.813 641H378.173V625.46H380.813V641ZM405.553 630.47C405.553 631.88 405.073 633.23 403.993 634.19C402.733 635.3 402.013 635.36 399.223 635.36H393.193V641H390.553V625.46H400.063C402.013 625.46 402.433 625.61 403.333 626.15C404.803 627.02 405.553 628.82 405.553 630.47ZM402.913 630.47C402.913 628.55 401.863 628.1 399.523 628.1H393.193V632.72H399.223C402.013 632.72 402.913 632.36 402.913 630.47ZM440.66 635.06H434.63V641.03H432.47V635.09H426.41V632.93H432.44V626.96H434.6V632.9H440.66V635.06ZM468.73 621.23H460.51V641H457.87V621.23H449.68V618.59H468.73V621.23ZM491.643 641H488.373L483.873 634.64H478.443V641H475.773V625.46H485.373C488.523 625.46 491.283 626.45 491.283 630.05C491.283 632.69 489.663 634.25 487.113 634.58L491.643 641ZM488.643 629.93C488.643 628.61 488.013 628.1 485.493 628.1H478.443V632H485.643C487.113 632 488.643 631.7 488.643 629.93ZM514.014 641H510.894L508.914 637.37H499.434L497.514 641H494.514L502.914 625.46H505.554L514.014 641ZM507.594 634.76L504.204 628.43L500.814 634.76H507.594ZM522.611 641H519.971V625.46H522.611V641ZM547.501 641H544.861L535.141 629.45V641H532.501V625.46H535.171L544.861 636.98V625.46H547.501V641ZM559.948 641H557.308V625.46H559.948V641ZM584.838 641H582.198L572.478 629.45V641H569.838V625.46H572.508L582.198 636.98V625.46H584.838V641ZM609.975 638.69C607.485 640.49 605.235 641.45 602.085 641.45C597.255 641.45 592.785 638.39 592.785 633.23C592.785 627.92 597.405 625.04 602.295 625.04C605.115 625.04 607.335 625.88 609.555 627.59L608.025 629.72C605.895 628.22 604.695 627.68 602.085 627.68C598.785 627.68 595.455 629.6 595.455 633.23C595.455 636.89 598.815 638.81 602.115 638.81C604.395 638.81 605.355 638.48 607.305 637.31V634.97H602.835V632.3H609.975V638.69Z" fill="#EBEDFF"/>
<line x1="364.5" y1="229" x2="364.5" y2="378.062" stroke="#EBEDFF" stroke-dasharray="10 10"/>
<line x1="403.5" y1="688" x2="403.5" y2="837.062" stroke="#EBEDFF" stroke-dasharray="10 10"/>
<line x1="1072.5" y1="466" x2="1072.5" y2="615.062" stroke="#EBEDFF" stroke-dasharray="10 10"/>
<line x1="785" y1="378.5" x2="377" y2="378.5" stroke="#EBEDFF" stroke-dasharray="10 10"/>
<line x1="1057" y1="615.5" x2="699" y2="615.5" stroke="#EBEDFF" stroke-dasharray="10 10"/>
<line x1="696" y1="837.5" x2="404" y2="837.5" stroke="#EBEDFF" stroke-dasharray="10 10"/>
<path d="M785 378L759.5 392.722V363.278L785 378Z" fill="#D9D9D9" fill-opacity="0.9"/>
<path d="M699 838L673.5 852.722V823.278L699 838Z" fill="#D9D9D9" fill-opacity="0.9"/>
<path d="M682 615L707.5 600.278V629.722L682 615Z" fill="#D9D9D9" fill-opacity="0.9"/>
</svg>
