<svg width="1529" height="1080" viewBox="0 0 1529 1080" fill="none" xmlns="http://www.w3.org/2000/svg">
<rect x="216.5" y="102.5" width="294" height="126" rx="4.5" stroke="#EBEDFF"/>
<path d="M297.8 164.9C297.8 170.63 293.42 173.51 288.05 173.51C285.65 173.51 283.1 172.88 281.24 171.29C279.98 170.18 279.35 168.92 278.63 167.42L281 166.22C282.65 169.55 284.21 170.84 288.08 170.84C291.86 170.84 295.16 169.07 295.16 164.9V150.59H297.8V164.9ZM327.813 164C327.813 165.92 327.753 167.99 326.703 169.67C324.903 172.61 321.093 173.57 317.853 173.57C315.243 173.57 312.663 173.06 310.593 171.35C308.163 169.31 307.953 167.09 307.953 164.06V150.59H310.593V164C310.593 166.4 310.713 167.57 311.643 168.68C313.113 170.42 315.693 170.9 317.853 170.9C320.133 170.9 322.953 170.48 324.303 168.44C324.843 167.63 325.173 166.82 325.173 164V150.59H327.813V164ZM357.99 157.19C357.99 159.14 357.15 161.09 355.65 162.35C354.54 163.28 353.61 163.49 352.23 163.73L357.45 173H354.42L349.23 163.73H340.32V173H337.68V150.59H348.9C352.53 150.59 353.55 150.71 355.26 151.82C357 152.96 357.99 155.15 357.99 157.19ZM355.35 157.22C355.35 154.28 353.07 153.23 350.46 153.23H340.32V161.09H349.98C351.99 161.09 352.92 161.03 353.82 160.4C354.81 159.71 355.35 158.42 355.35 157.22ZM367.94 173H365.3V150.56H367.94V173ZM396.52 166.49C396.52 171.92 390.28 173.57 385.9 173.57C381.07 173.57 377.89 172.19 374.53 168.74L376.42 166.88C379.36 169.79 381.7 170.9 385.87 170.9C388.63 170.9 393.85 170.09 393.85 166.4C393.85 163.7 391.06 162.62 388.78 162.59L384.04 162.53C381.22 162.5 379.84 162.17 378.49 161.3C377.02 160.34 376.18 158.6 376.18 156.86C376.18 151.91 381.76 150.11 385.84 150.11C389.5 150.11 392.41 151.19 395.32 153.41L393.67 155.48C391.09 153.65 388.93 152.78 385.75 152.78C383.35 152.78 378.85 153.74 378.85 156.86C378.85 157.79 379.36 158.72 380.17 159.17C381.19 159.71 381.88 159.86 384.73 159.89L388.06 159.92C389.62 159.92 391.21 160.07 392.65 160.67C394.96 161.63 396.52 164 396.52 166.49ZM420.13 153.23H411.91V173H409.27V153.23H401.08V150.59H420.13V153.23ZM446.494 173H427.354V150.59H445.834V153.23H430.024V160.07H438.334V162.71H430.024V170.36H446.494V173Z" fill="#EBEDFF"/>
<rect x="785.5" y="290.5" width="573" height="175" rx="4.5" stroke="#EBEDFF"/>
<path d="M925.581 348.78C925.581 355.47 920.751 360 914.781 360H904.191V337.62H914.781C921.291 337.62 925.581 342.06 925.581 348.78ZM923.511 348.84C923.511 342.81 919.761 339.66 914.781 339.66H906.261V357.96H914.781C919.491 357.96 923.511 354.93 923.511 348.84ZM952.364 360H933.194V337.65H951.644V339.75H935.204V347.43H944.174V349.47H935.204V357.96H952.364V360ZM981.181 355.92C978.031 358.86 974.611 360.51 970.261 360.51C963.601 360.51 958.201 355.62 958.201 348.84C958.201 341.88 963.571 337.14 970.381 337.14C974.701 337.14 978.061 338.37 981.091 341.49L979.711 342.96C977.131 340.32 974.251 339.18 970.561 339.18C964.831 339.18 960.241 342.9 960.241 348.84C960.241 354.51 964.861 358.44 970.381 358.44C974.071 358.44 977.101 356.88 979.771 354.42L981.181 355.92ZM1010.81 348.84C1010.81 355.56 1005.44 360.48 998.844 360.48C992.154 360.48 986.724 355.59 986.724 348.78C986.724 342.12 992.154 337.17 998.694 337.17C1005.35 337.17 1010.81 342.03 1010.81 348.84ZM1008.77 348.9C1008.77 343.32 1004.33 339.18 998.814 339.18C993.414 339.18 988.734 343.14 988.734 348.72C988.734 354.42 993.144 358.44 998.754 358.44C1004.24 358.44 1008.77 354.54 1008.77 348.9ZM1038.5 351.93C1038.5 358.11 1034.06 360.54 1028.39 360.54C1022.84 360.54 1018.67 357.84 1018.67 351.93V337.65H1020.71V351.93C1020.71 356.88 1024.16 358.5 1028.63 358.5C1031.06 358.5 1034.09 357.81 1035.56 355.68C1036.37 354.51 1036.46 353.31 1036.46 351.93V337.65H1038.5V351.93ZM1068.29 337.65L1057.31 360H1055.33L1044.56 337.65H1046.72L1056.32 357.42L1066.04 337.65H1068.29ZM1092.95 360H1073.78V337.65H1092.23V339.75H1075.79V347.43H1084.76V349.47H1075.79V357.96H1092.95V360ZM1120.23 344.07C1120.23 345.96 1119.3 348.21 1117.74 349.32C1116.54 350.16 1114.89 350.49 1114.08 350.55L1119.75 360H1117.38L1111.74 350.55H1101.99V360H1099.89V337.62H1113.06C1115.31 337.62 1115.97 337.8 1117.29 338.52C1119.15 339.54 1120.23 342.12 1120.23 344.07ZM1118.19 343.98C1118.19 342.51 1117.62 341.16 1116.33 340.38C1115.55 339.9 1114.74 339.69 1112.16 339.69H1101.99V348.51H1112.16C1114.53 348.51 1115.58 348.36 1116.48 347.7C1117.62 346.86 1118.19 345.36 1118.19 343.98ZM1144.71 339.66H1136.25V360H1134.21V339.66H1125.63V337.62H1144.71V339.66ZM1170.62 360H1151.45V337.65H1169.9V339.75H1153.46V347.43H1162.43V349.47H1153.46V357.96H1170.62V360ZM1210.96 348.78C1210.96 355.47 1206.13 360 1200.16 360H1189.57V337.62H1200.16C1206.67 337.62 1210.96 342.06 1210.96 348.78ZM1208.89 348.84C1208.89 342.81 1205.14 339.66 1200.16 339.66H1191.64V357.96H1200.16C1204.87 357.96 1208.89 354.93 1208.89 348.84ZM1238.97 351.93C1238.97 358.11 1234.53 360.54 1228.86 360.54C1223.31 360.54 1219.14 357.84 1219.14 351.93V337.65H1221.18V351.93C1221.18 356.88 1224.63 358.5 1229.1 358.5C1231.53 358.5 1234.56 357.81 1236.03 355.68C1236.84 354.51 1236.93 353.31 1236.93 351.93V337.65H1238.97V351.93ZM872.409 400.78C872.409 407.47 867.579 412 861.609 412H851.019V389.62H861.609C868.119 389.62 872.409 394.06 872.409 400.78ZM870.339 400.84C870.339 394.81 866.589 391.66 861.609 391.66H853.089V409.96H861.609C866.319 409.96 870.339 406.93 870.339 400.84ZM899.192 412H880.022V389.65H898.472V391.75H882.032V399.43H891.002V401.47H882.032V409.96H899.192V412ZM926.869 389.65L915.889 412H913.909L903.139 389.65H905.299L914.899 409.42L924.619 389.65H926.869ZM951.529 412H932.359V389.65H950.809V391.75H934.369V399.43H943.339V401.47H934.369V409.96H951.529V412ZM975.306 412H958.656V389.65H960.696V409.93H975.306V412ZM1003.86 400.84C1003.86 407.56 998.486 412.48 991.886 412.48C985.196 412.48 979.766 407.59 979.766 400.78C979.766 394.12 985.196 389.17 991.736 389.17C998.396 389.17 1003.86 394.03 1003.86 400.84ZM1001.82 400.9C1001.82 395.32 997.376 391.18 991.856 391.18C986.456 391.18 981.776 395.14 981.776 400.72C981.776 406.42 986.186 410.44 991.796 410.44C997.286 410.44 1001.82 406.54 1001.82 400.9ZM1030.43 396.1C1030.43 398.11 1029.59 400.09 1027.94 401.35C1026.83 402.19 1024.67 402.43 1022.9 402.43H1013V412H1010.93V389.65H1023.89C1025.63 389.65 1026.98 389.83 1028.33 391.03C1029.77 392.29 1030.43 394.21 1030.43 396.1ZM1028.36 396.04C1028.36 393.1 1026.8 391.69 1023.89 391.69H1013V400.36H1022.9C1024.82 400.36 1025.93 400.18 1026.65 399.73C1027.88 398.98 1028.36 397.42 1028.36 396.04ZM1057.44 396.1C1057.44 398.11 1056.6 400.09 1054.95 401.35C1053.84 402.19 1051.68 402.43 1049.91 402.43H1040.01V412H1037.94V389.65H1050.9C1052.64 389.65 1053.99 389.83 1055.34 391.03C1056.78 392.29 1057.44 394.21 1057.44 396.1ZM1055.37 396.04C1055.37 393.1 1053.81 391.69 1050.9 391.69H1040.01V400.36H1049.91C1051.83 400.36 1052.94 400.18 1053.66 399.73C1054.89 398.98 1055.37 397.42 1055.37 396.04ZM1084.32 412H1065.15V389.65H1083.6V391.75H1067.16V399.43H1076.13V401.47H1067.16V409.96H1084.32V412ZM1114.25 412H1112.21V393.64L1103.15 408.85L1094.12 393.64V412H1092.11V389.62H1094.12L1103.15 404.89L1112.3 389.62H1114.25V412ZM1142.78 412H1123.61V389.65H1142.06V391.75H1125.62V399.43H1134.59V401.47H1125.62V409.96H1142.78V412ZM1170.73 412H1168.66L1152.91 392.86V412H1150.87V389.65H1152.91L1168.69 408.73V389.65H1170.73V412ZM1197.32 391.66H1188.86V412H1186.82V391.66H1178.24V389.62H1197.32V391.66ZM1241.48 389.65L1234.25 412H1232.21L1227.08 393.61L1222.04 412H1220L1212.74 389.65H1214.9L1220.99 408.22L1226.06 389.65H1228.13L1233.29 408.22L1239.32 389.65H1241.48ZM1266.14 412H1246.97V389.65H1265.42V391.75H1248.98V399.43H1257.95V401.47H1248.98V409.96H1266.14V412ZM1293.6 405.79C1293.6 407.68 1292.73 409.48 1291.23 410.65C1289.67 411.88 1288.2 412 1286.28 412H1273.11V389.65H1286.28C1289.76 389.65 1292.58 392.08 1292.58 395.65C1292.58 397.66 1291.71 399.01 1290.33 400.36C1292.37 401.56 1293.6 403.36 1293.6 405.79ZM1290.54 395.62C1290.54 393.1 1288.68 391.72 1286.28 391.72H1275.15V399.52H1286.28C1288.65 399.52 1290.54 398.11 1290.54 395.62ZM1291.53 405.79C1291.53 402.7 1289.01 401.59 1286.28 401.59H1275.15V409.93H1286.28C1287.75 409.93 1289.07 409.9 1290.18 408.88C1291.08 408.1 1291.53 406.96 1291.53 405.79Z" fill="#EBEDFF"/>
<rect x="697.5" y="749.5" width="573" height="175" rx="4.5" stroke="#EBEDFF"/>
<path d="M799.08 834.78C799.08 841.47 794.25 846 788.28 846H777.69V823.62H788.28C794.79 823.62 799.08 828.06 799.08 834.78ZM797.01 834.84C797.01 828.81 793.26 825.66 788.28 825.66H779.76V843.96H788.28C792.99 843.96 797.01 840.93 797.01 834.84ZM825.864 846H806.694V823.65H825.144V825.75H808.704V833.43H817.674V835.47H808.704V843.96H825.864V846ZM853.541 823.65L842.561 846H840.581L829.811 823.65H831.971L841.571 843.42L851.291 823.65H853.541ZM878.201 846H859.031V823.65H877.481V825.75H861.041V833.43H870.011V835.47H861.041V843.96H878.201V846ZM901.978 846H885.328V823.65H887.368V843.93H901.978V846ZM930.528 834.84C930.528 841.56 925.158 846.48 918.558 846.48C911.868 846.48 906.438 841.59 906.438 834.78C906.438 828.12 911.868 823.17 918.408 823.17C925.068 823.17 930.528 828.03 930.528 834.84ZM928.488 834.9C928.488 829.32 924.048 825.18 918.528 825.18C913.128 825.18 908.448 829.14 908.448 834.72C908.448 840.42 912.858 844.44 918.468 844.44C923.958 844.44 928.488 840.54 928.488 834.9ZM957.105 830.1C957.105 832.11 956.265 834.09 954.615 835.35C953.505 836.19 951.345 836.43 949.575 836.43H939.675V846H937.605V823.65H950.565C952.305 823.65 953.655 823.83 955.005 825.03C956.445 826.29 957.105 828.21 957.105 830.1ZM955.035 830.04C955.035 827.1 953.475 825.69 950.565 825.69H939.675V834.36H949.575C951.495 834.36 952.605 834.18 953.325 833.73C954.555 832.98 955.035 831.42 955.035 830.04ZM984.108 830.1C984.108 832.11 983.268 834.09 981.618 835.35C980.508 836.19 978.348 836.43 976.578 836.43H966.678V846H964.608V823.65H977.568C979.308 823.65 980.658 823.83 982.008 825.03C983.448 826.29 984.108 828.21 984.108 830.1ZM982.038 830.04C982.038 827.1 980.478 825.69 977.568 825.69H966.678V834.36H976.578C978.498 834.36 979.608 834.18 980.328 833.73C981.558 832.98 982.038 831.42 982.038 830.04ZM1010.99 846H991.822V823.65H1010.27V825.75H993.832V833.43H1002.8V835.47H993.832V843.96H1010.99V846ZM1038.67 837.93C1038.67 844.11 1034.23 846.54 1028.56 846.54C1023.01 846.54 1018.84 843.84 1018.84 837.93V823.65H1020.88V837.93C1020.88 842.88 1024.33 844.5 1028.8 844.5C1031.23 844.5 1034.26 843.81 1035.73 841.68C1036.54 840.51 1036.63 839.31 1036.63 837.93V823.65H1038.67V837.93ZM1067.44 839.58C1067.44 845.07 1060.93 846.51 1056.61 846.51C1054.66 846.51 1052.74 846.21 1050.91 845.55C1048.63 844.74 1047.34 843.6 1045.63 841.92L1047.04 840.45C1049.92 843.39 1052.71 844.44 1056.79 844.44C1059.79 844.44 1065.37 843.66 1065.37 839.61C1065.37 836.7 1062.4 835.53 1060.33 835.35C1059.1 835.23 1056.13 835.26 1054.42 835.23C1051.03 835.17 1047.25 833.82 1047.25 829.83C1047.25 826.47 1050.07 824.49 1053.01 823.68C1054.39 823.29 1055.83 823.14 1057.24 823.14C1060.72 823.14 1063.39 824.28 1066.15 826.35L1064.89 827.88C1062.16 826.14 1060.21 825.15 1056.88 825.15C1055.92 825.15 1054.96 825.21 1054 825.45C1051.9 825.93 1049.29 827.31 1049.29 829.8C1049.29 832.56 1052.23 833.13 1054.42 833.19C1056.19 833.25 1058.86 833.25 1060.51 833.37C1064.26 833.67 1067.44 835.77 1067.44 839.58ZM1093.12 846H1073.95V823.65H1092.4V825.75H1075.96V833.43H1084.93V835.47H1075.96V843.96H1093.12V846ZM1137.81 823.65L1130.58 846H1128.54L1123.41 827.61L1118.37 846H1116.33L1109.07 823.65H1111.23L1117.32 842.22L1122.39 823.65H1124.46L1129.62 842.22L1135.65 823.65H1137.81ZM1162.47 846H1143.3V823.65H1161.75V825.75H1145.31V833.43H1154.28V835.47H1145.31V843.96H1162.47V846ZM1189.93 839.79C1189.93 841.68 1189.06 843.48 1187.56 844.65C1186 845.88 1184.53 846 1182.61 846H1169.44V823.65H1182.61C1186.09 823.65 1188.91 826.08 1188.91 829.65C1188.91 831.66 1188.04 833.01 1186.66 834.36C1188.7 835.56 1189.93 837.36 1189.93 839.79ZM1186.87 829.62C1186.87 827.1 1185.01 825.72 1182.61 825.72H1171.48V833.52H1182.61C1184.98 833.52 1186.87 832.11 1186.87 829.62ZM1187.86 839.79C1187.86 836.7 1185.34 835.59 1182.61 835.59H1171.48V843.93H1182.61C1184.08 843.93 1185.4 843.9 1186.51 842.88C1187.41 842.1 1187.86 840.96 1187.86 839.79Z" fill="#EBEDFF"/>
<rect x="45.5" y="527.5" width="716" height="160" rx="4.5" stroke="#EBEDFF"/>
<path d="M303.289 569.23H295.069V589H292.429V569.23H284.239V566.59H303.289V569.23ZM330.823 573.19C330.823 575.14 329.983 577.09 328.483 578.35C327.373 579.28 326.443 579.49 325.063 579.73L330.283 589H327.253L322.063 579.73H313.153V589H310.513V566.59H321.733C325.363 566.59 326.383 566.71 328.093 567.82C329.833 568.96 330.823 571.15 330.823 573.19ZM328.183 573.22C328.183 570.28 325.903 569.23 323.293 569.23H313.153V577.09H322.813C324.823 577.09 325.753 577.03 326.653 576.4C327.643 575.71 328.183 574.42 328.183 573.22ZM357.933 589H354.993L351.333 581.29H340.533L336.993 589H334.053L344.733 566.59H347.433L357.933 589ZM350.163 578.68L346.053 569.8L341.853 578.68H350.163ZM383.883 589H381.213L366.603 570.76V589H363.963V566.59H366.603L381.213 585.07V566.59H383.883V589ZM412.47 582.49C412.47 587.92 406.23 589.57 401.85 589.57C397.02 589.57 393.84 588.19 390.48 584.74L392.37 582.88C395.31 585.79 397.65 586.9 401.82 586.9C404.58 586.9 409.8 586.09 409.8 582.4C409.8 579.7 407.01 578.62 404.73 578.59L399.99 578.53C397.17 578.5 395.79 578.17 394.44 577.3C392.97 576.34 392.13 574.6 392.13 572.86C392.13 567.91 397.71 566.11 401.79 566.11C405.45 566.11 408.36 567.19 411.27 569.41L409.62 571.48C407.04 569.65 404.88 568.78 401.7 568.78C399.3 568.78 394.8 569.74 394.8 572.86C394.8 573.79 395.31 574.72 396.12 575.17C397.14 575.71 397.83 575.86 400.68 575.89L404.01 575.92C405.57 575.92 407.16 576.07 408.6 576.67C410.91 577.63 412.47 580 412.47 582.49ZM422.34 589H419.7V566.56H422.34V589ZM448.64 569.23H440.42V589H437.78V569.23H429.59V566.59H448.64V569.23ZM458.564 589H455.924V566.56H458.564V589ZM490.924 577.75C490.924 584.59 485.494 589.57 478.744 589.57C472.204 589.57 466.714 584.53 466.714 577.9C466.714 571.18 472.324 566.08 478.924 566.08C485.524 566.08 490.924 571.03 490.924 577.75ZM488.254 577.81C488.254 572.59 484.114 568.75 478.954 568.75C473.764 568.75 469.384 572.59 469.384 577.9C469.384 583.09 473.734 586.93 478.804 586.93C483.994 586.93 488.254 583.12 488.254 577.81ZM519.244 589H516.574L501.964 570.76V589H499.324V566.59H501.964L516.574 585.07V566.59H519.244V589ZM150.231 621.23H142.011V641H139.371V621.23H131.181V618.59H150.231V621.23ZM174.974 633.2C174.974 638.54 170.204 641.54 165.284 641.54C160.454 641.54 155.924 638.54 155.924 633.35V632.93C155.924 627.68 160.784 625.01 165.524 625.01C170.414 625.01 174.974 627.92 174.974 633.2ZM172.304 633.23C172.304 629.42 168.884 627.71 165.494 627.71C162.104 627.71 158.594 629.51 158.594 633.32C158.594 637.07 161.954 638.84 165.314 638.84C168.674 638.84 172.304 637.04 172.304 633.23ZM198.374 634.22C198.374 636.68 198.194 637.46 197.414 638.66C196.064 640.73 193.154 641.45 190.844 641.45C188.714 641.45 186.494 640.97 184.904 639.47C183.374 638 183.284 636.23 183.284 634.22V625.46H185.954V634.22C185.954 636.35 186.164 636.86 186.644 637.4C187.634 638.51 189.644 638.78 191.024 638.78C192.464 638.78 194.354 638.42 195.224 637.16C195.584 636.65 195.734 636.14 195.734 634.22V625.46H198.374V634.22ZM223.811 641H220.541L216.041 634.64H210.611V641H207.941V625.46H217.541C220.691 625.46 223.451 626.45 223.451 630.05C223.451 632.69 221.831 634.25 219.281 634.58L223.811 641ZM220.811 629.93C220.811 628.61 220.181 628.1 217.661 628.1H210.611V632H217.811C219.281 632 220.811 631.7 220.811 629.93ZM259.055 633.17C259.055 637.97 255.905 641 251.135 641H242.615V625.46H251.135C256.295 625.46 259.055 628.91 259.055 633.17ZM256.415 633.2C256.415 629.81 254.315 628.1 251.135 628.1H245.255V638.36H251.135C254.285 638.36 256.415 636.41 256.415 633.2ZM281.369 634.22C281.369 636.68 281.189 637.46 280.409 638.66C279.059 640.73 276.149 641.45 273.839 641.45C271.709 641.45 269.489 640.97 267.899 639.47C266.369 638 266.279 636.23 266.279 634.22V625.46H268.949V634.22C268.949 636.35 269.159 636.86 269.639 637.4C270.629 638.51 272.639 638.78 274.019 638.78C275.459 638.78 277.349 638.42 278.219 637.16C278.579 636.65 278.729 636.14 278.729 634.22V625.46H281.369V634.22ZM320.189 641H317.549V630.08L311.669 638.81L305.759 630.08V641H303.119V625.46H305.759L311.669 634.4L317.579 625.46H320.189V641ZM347.643 633.2C347.643 638.54 342.873 641.54 337.953 641.54C333.123 641.54 328.593 638.54 328.593 633.35V632.93C328.593 627.68 333.453 625.01 338.193 625.01C343.083 625.01 347.643 627.92 347.643 633.2ZM344.973 633.23C344.973 629.42 341.553 627.71 338.163 627.71C334.773 627.71 331.263 629.51 331.263 633.32C331.263 637.07 334.623 638.84 337.983 638.84C341.343 638.84 344.973 637.04 344.973 633.23ZM371.013 641H368.373L358.653 629.45V641H356.013V625.46H358.683L368.373 636.98V625.46H371.013V641ZM397.17 633.17C397.17 637.97 394.02 641 389.25 641H380.73V625.46H389.25C394.41 625.46 397.17 628.91 397.17 633.17ZM394.53 633.2C394.53 629.81 392.43 628.1 389.25 628.1H383.37V638.36H389.25C392.4 638.36 394.53 636.41 394.53 633.2ZM418.584 641H404.604V625.46H418.284V628.1H407.244V631.67H413.304V634.31H407.244V638.36H418.584V641ZM453.824 635.06H447.794V641.03H445.634V635.09H439.574V632.93H445.604V626.96H447.764V632.9H453.824V635.06ZM495.578 621.2H479.978V628.34H489.728V631.01H479.978V641H477.338V618.59H495.578V621.2ZM520.341 633.2C520.341 638.54 515.571 641.54 510.651 641.54C505.821 641.54 501.291 638.54 501.291 633.35V632.93C501.291 627.68 506.151 625.01 510.891 625.01C515.781 625.01 520.341 627.92 520.341 633.2ZM517.671 633.23C517.671 629.42 514.251 627.71 510.861 627.71C507.471 627.71 503.961 629.51 503.961 633.32C503.961 637.07 507.321 638.84 510.681 638.84C514.041 638.84 517.671 637.04 517.671 633.23ZM544.401 641H541.131L536.631 634.64H531.201V641H528.531V625.46H538.131C541.281 625.46 544.041 626.45 544.041 630.05C544.041 632.69 542.421 634.25 539.871 634.58L544.401 641ZM541.401 629.93C541.401 628.61 540.771 628.1 538.251 628.1H531.201V632H538.401C539.871 632 541.401 631.7 541.401 629.93ZM568.332 641H565.692V630.08L559.812 638.81L553.902 630.08V641H551.262V625.46H553.902L559.812 634.4L565.722 625.46H568.332V641ZM593.775 641H590.655L588.675 637.37H579.195L577.275 641H574.275L582.675 625.46H585.315L593.775 641ZM587.355 634.76L583.965 628.43L580.575 634.76H587.355ZM611.672 628.1H605.672V641H603.002V628.1H597.122V625.46H611.672V628.1ZM621.612 641H618.972V625.46H621.612V641ZM649.022 633.2C649.022 638.54 644.252 641.54 639.332 641.54C634.502 641.54 629.972 638.54 629.972 633.35V632.93C629.972 627.68 634.832 625.01 639.572 625.01C644.462 625.01 649.022 627.92 649.022 633.2ZM646.352 633.23C646.352 629.42 642.932 627.71 639.542 627.71C636.152 627.71 632.642 629.51 632.642 633.32C632.642 637.07 636.002 638.84 639.362 638.84C642.722 638.84 646.352 637.04 646.352 633.23ZM672.392 641H669.752L660.032 629.45V641H657.392V625.46H660.062L669.752 636.98V625.46H672.392V641Z" fill="#EBEDFF"/>
<line x1="364.5" y1="229" x2="364.5" y2="378.062" stroke="#EBEDFF" stroke-dasharray="10 10"/>
<line x1="403.5" y1="688" x2="403.5" y2="837.062" stroke="#EBEDFF" stroke-dasharray="10 10"/>
<line x1="1072.5" y1="466" x2="1072.5" y2="615.062" stroke="#EBEDFF" stroke-dasharray="10 10"/>
<line x1="785" y1="378.5" x2="377" y2="378.5" stroke="#EBEDFF" stroke-dasharray="10 10"/>
<line x1="1057" y1="615.5" x2="765" y2="615.5" stroke="#EBEDFF" stroke-dasharray="10 10"/>
<line x1="696" y1="837.5" x2="404" y2="837.5" stroke="#EBEDFF" stroke-dasharray="10 10"/>
<path d="M785 378L759.5 392.722V363.278L785 378Z" fill="#D9D9D9" fill-opacity="0.9"/>
<path d="M699 838L673.5 852.722V823.278L699 838Z" fill="#D9D9D9" fill-opacity="0.9"/>
<path d="M762 615L787.5 600.278V629.722L762 615Z" fill="#D9D9D9" fill-opacity="0.9"/>
</svg>
