<svg xmlns="http://www.w3.org/2000/svg" width="1773" height="1576" viewBox="0 0 1773 1576" version="1.1"><path d="M 658.021 734.125 C 648.186 735.264, 640.947 737.422, 633 741.583 C 616.638 750.150, 606.007 763.102, 599.830 781.992 C 597.112 790.303, 596.659 793.297, 596.234 805.768 C 595.316 832.670, 601.789 851.826, 616.956 867.094 C 625.623 875.819, 636.053 881.590, 649.500 885.100 C 659.706 887.764, 680.024 888.063, 690.516 885.704 C 704.996 882.447, 720.442 875.816, 729.750 868.859 L 735 864.935 735 834.968 L 735 805 702.500 805 L 670 805 670 817.476 L 670 829.953 687.250 830.226 L 704.500 830.500 704.785 839.563 C 705.118 850.145, 705.245 849.952, 694.347 855.405 C 671.060 867.057, 646.841 862.453, 635.091 844.142 C 628.633 834.078, 627.619 829.410, 627.563 809.500 C 627.517 793.059, 627.709 791.015, 629.774 785.895 C 634.649 773.810, 642.101 766.146, 653.281 761.717 C 657.324 760.115, 660.865 759.633, 669 759.575 C 678.311 759.508, 680.128 759.794, 685.046 762.101 C 692.683 765.683, 697.237 769.963, 700.623 776.743 C 702.206 779.909, 703.504 782.579, 703.508 782.674 C 703.512 782.770, 710.037 781.603, 718.008 780.080 L 732.500 777.311 732.205 774.406 C 731.690 769.345, 725.297 757.233, 720.309 751.868 C 710.595 741.421, 698.157 735.907, 680.144 734.061 C 668.725 732.891, 668.681 732.891, 658.021 734.125 M 763 810.491 L 763 885.148 800.750 884.782 L 838.500 884.416 846.657 881.694 C 865.007 875.570, 876.048 863.927, 882.885 843.488 C 888.781 825.866, 889.219 800.015, 883.945 781.027 C 879.305 764.320, 868.717 749.859, 856.267 743.223 C 844.572 736.990, 842.282 736.702, 800.750 736.247 L 763 735.834 763 810.491 M 913 810.404 L 913 885 928 885 L 943 885 943 857 L 943 829 959.250 828.983 C 994.584 828.945, 1007.919 824.969, 1018.149 811.419 C 1024.321 803.245, 1026.217 797.286, 1026.769 784.333 C 1027.171 774.912, 1026.915 772.079, 1025.133 766.211 C 1021.075 752.853, 1011.704 742.948, 999.269 738.875 C 992.845 736.770, 990.472 736.636, 952.750 736.233 L 913 735.808 913 810.404 M 1052 810.425 L 1052 885 1067 885 L 1082 885 1082 853.869 L 1082 822.738 1092.250 823.203 C 1098.944 823.506, 1103.577 824.228, 1105.604 825.284 C 1110.972 828.080, 1118.111 836.992, 1134.507 861.368 L 1150.402 885 1168.282 885 L 1186.163 885 1183.873 881.250 C 1160.792 843.462, 1152.393 831.915, 1142.797 824.780 L 1135.846 819.610 1142.494 817.789 C 1151.564 815.305, 1156.426 812.656, 1162.552 806.862 C 1169.605 800.192, 1173.075 792.353, 1173.747 781.569 C 1175.126 759.470, 1164.493 743.505, 1144.986 738.384 C 1139.498 736.944, 1131.843 736.618, 1095.250 736.266 L 1052 735.850 1052 810.425 M 793 810.617 L 793 860.234 812.750 859.827 C 831.398 859.442, 832.807 859.277, 838 856.858 C 851.732 850.464, 856.344 838.959, 856.383 811 C 856.406 794.191, 855.195 786.329, 851.438 778.893 C 844.223 764.611, 835.337 761.099, 806.250 761.031 L 793 761 793 810.617 M 943.230 782.117 L 943.500 803.500 960 803.374 C 969.075 803.304, 978.345 802.743, 980.599 802.126 C 990.440 799.433, 995.956 792.475, 995.984 782.718 C 996.003 775.932, 994.349 771.535, 990.373 767.803 C 984.828 762.598, 981.044 761.743, 961.230 761.218 L 942.959 760.733 943.230 782.117 M 1082 780.092 L 1082 799.184 1105.750 798.806 C 1132.485 798.380, 1134.685 797.901, 1139.618 791.434 C 1142.221 788.021, 1142.500 786.906, 1142.500 779.901 C 1142.500 771.572, 1141.271 768.785, 1135.796 764.697 C 1131.808 761.719, 1126.207 761.091, 1103.250 761.044 L 1082 761 1082 780.092" stroke="none" fill="#ffffff" fill-rule="evenodd"/><path d="M 881.733 189.683 C 881.476 190.133, 880.559 192.750, 879.694 195.500 C 878.829 198.250, 874.700 211.181, 870.517 224.236 L 862.912 247.972 831.950 248.236 L 800.988 248.500 825.970 266.420 C 847.217 281.660, 850.875 284.650, 850.430 286.421 C 850.143 287.567, 845.948 300.653, 841.108 315.502 C 836.268 330.351, 832.419 342.643, 832.555 342.818 C 832.692 342.993, 843.919 335.028, 857.504 325.118 L 882.205 307.099 890.853 313.413 C 895.609 316.885, 906.663 324.963, 915.418 331.362 C 924.172 337.762, 931.466 342.868, 931.625 342.708 C 931.785 342.549, 927.726 329.399, 922.607 313.486 L 913.299 284.553 915.399 282.958 C 916.555 282.080, 927.818 273.969, 940.430 264.931 L 963.360 248.500 932.377 248.236 L 901.394 247.972 892.074 218.736 C 886.949 202.656, 882.630 189.358, 882.477 189.183 C 882.325 189.009, 881.990 189.234, 881.733 189.683 M 1130.976 287.722 L 1121.500 317.326 1090 317.112 L 1058.500 316.899 1065.500 322.042 C 1069.350 324.870, 1080.713 333.078, 1090.750 340.282 C 1100.787 347.486, 1109 353.924, 1109 354.590 C 1109 355.256, 1104.973 368.318, 1100.051 383.618 C 1095.130 398.918, 1091.266 411.600, 1091.466 411.800 C 1091.666 412, 1102.656 404.252, 1115.888 394.582 C 1129.120 384.912, 1140.306 377, 1140.746 377 C 1141.186 377, 1152.306 384.866, 1165.459 394.480 C 1178.611 404.095, 1189.556 411.778, 1189.780 411.554 C 1190.004 411.330, 1186.059 398.250, 1181.013 382.487 C 1175.968 366.724, 1171.988 353.711, 1172.170 353.569 C 1172.351 353.426, 1183.719 345.253, 1197.432 335.405 L 1222.363 317.500 1191.015 317 L 1159.667 316.500 1150.428 287.678 C 1145.346 271.826, 1141.023 258.690, 1140.820 258.487 C 1140.617 258.284, 1136.187 271.440, 1130.976 287.722 M 621.596 264.750 C 620.623 267.913, 616.471 280.956, 612.370 293.736 L 604.912 316.972 573.706 317.236 L 542.500 317.500 567.500 335.422 C 581.250 345.279, 592.630 353.434, 592.789 353.544 C 593.086 353.750, 575.118 409.912, 574.326 411.250 C 573.005 413.482, 577.687 410.353, 599.429 394.475 C 612.590 384.864, 623.720 377, 624.163 377 C 624.606 377, 635.801 384.925, 649.040 394.611 C 662.279 404.298, 673.256 412.060, 673.433 411.861 C 673.610 411.663, 669.608 398.675, 664.539 383 C 659.469 367.325, 655.467 354.218, 655.644 353.873 C 655.821 353.528, 666.781 345.485, 680 336 C 693.219 326.515, 704.278 318.360, 704.576 317.877 C 704.882 317.382, 691.668 317, 674.194 317 L 643.271 317 637.569 299.250 C 626.246 264.003, 624.556 259, 623.965 259 C 623.635 259, 622.569 261.587, 621.596 264.750 M 432.709 454.543 C 431.283 458.919, 426.917 472.506, 423.006 484.736 L 415.897 506.971 385.262 507.236 L 354.626 507.500 378.814 524.846 C 392.117 534.387, 403.218 542.544, 403.483 542.973 C 403.882 543.617, 395.112 572.042, 387.039 596.273 C 385.826 599.912, 385.556 601.776, 386.308 601.313 C 386.963 600.910, 398.181 592.768, 411.235 583.221 C 426.264 572.230, 435.434 566.136, 436.235 566.607 C 436.931 567.017, 448.188 575.142, 461.250 584.663 C 474.313 594.184, 484.993 601.642, 484.985 601.237 C 484.977 600.832, 480.768 587.597, 475.631 571.828 L 466.292 543.155 491.047 525.328 L 515.802 507.500 485.234 507 L 454.665 506.500 450.389 493.500 C 448.037 486.350, 443.680 472.869, 440.708 463.543 L 435.302 446.586 432.709 454.543 M 1328.788 447.559 C 1328.476 448.076, 1327.021 452.325, 1325.554 457 C 1324.087 461.675, 1319.960 474.606, 1316.382 485.736 L 1309.876 505.972 1279.052 506.236 L 1248.229 506.500 1272.688 524 C 1286.141 533.625, 1297.343 541.801, 1297.583 542.169 C 1297.951 542.735, 1291.220 564.359, 1281.521 593.771 C 1280.109 598.052, 1279.612 600.755, 1280.312 600.345 C 1280.965 599.962, 1292.221 591.834, 1305.324 582.283 L 1329.149 564.917 1353.813 582.887 C 1367.379 592.770, 1378.590 600.744, 1378.727 600.607 C 1378.921 600.412, 1365.313 557.439, 1361.087 544.904 C 1360.243 542.401, 1361.110 541.664, 1385.191 524.404 L 1410.170 506.500 1379.310 506.236 L 1348.450 505.972 1341.060 482.736 C 1330.646 449.991, 1329.427 446.497, 1328.788 447.559 M 1387.997 733.750 L 1378.496 763.500 1347.752 764 L 1317.009 764.500 1341.868 782.327 L 1366.726 800.153 1357.383 828.827 C 1352.244 844.597, 1348.143 857.774, 1348.270 858.109 C 1348.396 858.443, 1357.275 852.252, 1368 844.350 C 1378.725 836.449, 1389.832 828.358, 1392.683 826.372 L 1397.866 822.760 1422.036 840.444 C 1435.329 850.170, 1446.415 857.918, 1446.672 857.662 C 1446.928 857.405, 1443.057 844.508, 1438.070 829 C 1433.083 813.492, 1429.220 800.453, 1429.485 800.025 C 1429.749 799.596, 1440.862 791.428, 1454.178 781.873 L 1478.390 764.500 1447.753 764.236 L 1417.117 763.971 1409.501 740.236 C 1398.814 706.927, 1397.859 704, 1397.668 704 C 1397.575 704, 1393.223 717.388, 1387.997 733.750 M 356.578 733.750 C 351.732 749.013, 347.406 762.167, 346.964 762.983 C 346.276 764.252, 341.732 764.427, 315.330 764.202 L 284.500 763.938 286.819 765.936 C 288.095 767.034, 299.215 775.163, 311.531 784 C 323.847 792.838, 334.105 800.390, 334.326 800.784 C 334.546 801.178, 330.586 814.325, 325.525 830 C 320.463 845.675, 316.455 858.668, 316.617 858.873 C 316.779 859.078, 327.596 851.444, 340.654 841.908 C 353.713 832.373, 365.113 824.571, 365.989 824.571 C 366.865 824.571, 378.267 832.376, 391.327 841.916 C 404.387 851.456, 415.209 859.089, 415.375 858.880 C 415.542 858.671, 411.537 845.675, 406.475 830 C 401.414 814.325, 397.454 801.178, 397.674 800.784 C 397.895 800.390, 408.153 792.838, 420.469 784 C 432.785 775.163, 443.905 767.063, 445.181 766 C 447.483 764.080, 447.276 764.066, 416.339 764.033 L 385.178 764 378.524 743.250 C 374.865 731.837, 370.682 718.788, 369.229 714.250 C 367.776 709.712, 366.318 706, 365.988 706 C 365.658 706, 361.423 718.487, 356.578 733.750 M 762.475 810.500 C 762.475 851.750, 762.598 868.771, 762.750 848.324 C 762.901 827.877, 762.901 794.127, 762.750 773.324 C 762.599 752.521, 762.475 769.250, 762.475 810.500 M 943.469 782.249 L 943.500 803.500 956.252 803.547 L 969.003 803.593 956.521 803.267 L 944.040 802.941 943.739 781.970 L 943.439 760.999 943.469 782.249 M 1082.419 780 C 1082.419 790.725, 1082.566 795.112, 1082.746 789.750 C 1082.925 784.388, 1082.925 775.612, 1082.746 770.250 C 1082.566 764.888, 1082.419 769.275, 1082.419 780 M 1082.445 854 C 1082.445 871.325, 1082.582 878.413, 1082.748 869.750 C 1082.915 861.087, 1082.915 846.913, 1082.748 838.250 C 1082.582 829.587, 1082.445 836.675, 1082.445 854 M 943.441 857 C 943.441 872.675, 943.579 879.087, 943.748 871.250 C 943.917 863.413, 943.917 850.587, 943.748 842.750 C 943.579 834.913, 943.441 841.325, 943.441 857 M 686.713 830.736 L 703.926 831.047 704.272 840.026 L 704.619 849.005 704.560 839.753 L 704.500 830.500 687 830.462 L 669.500 830.425 686.713 830.736 M 434.841 964.506 C 434.523 965.053, 433.782 967.075, 433.196 969 C 432.609 970.925, 428.483 983.856, 424.026 997.736 L 415.924 1022.972 385.130 1023.236 L 354.336 1023.500 379.168 1041.361 C 392.826 1051.185, 403.992 1059.510, 403.981 1059.861 C 403.971 1060.213, 399.746 1073.438, 394.593 1089.250 C 389.440 1105.063, 385.394 1118, 385.601 1118 C 385.809 1118, 397.040 1109.880, 410.560 1099.956 L 435.141 1081.912 444.820 1088.908 C 450.144 1092.756, 461.250 1100.836, 469.500 1106.865 C 477.750 1112.894, 484.619 1117.710, 484.764 1117.566 C 484.909 1117.423, 480.937 1104.602, 475.936 1089.076 C 470.936 1073.550, 467.062 1060.281, 467.327 1059.590 C 467.593 1058.898, 478.697 1050.495, 492.003 1040.916 L 516.197 1023.500 485.348 1023 L 454.500 1022.500 453.167 1018.500 C 452.434 1016.300, 448.141 1003.028, 443.627 989.006 C 439.113 974.984, 435.160 963.959, 434.841 964.506 M 1328.788 964.559 C 1328.476 965.076, 1327.021 969.325, 1325.554 974 C 1324.087 978.675, 1319.960 991.606, 1316.382 1002.736 L 1309.876 1022.972 1279.051 1023.236 L 1248.226 1023.500 1273.139 1041.381 C 1294.919 1057.013, 1297.971 1059.528, 1297.409 1061.381 C 1294.505 1070.956, 1279.632 1116.716, 1279.168 1117.500 C 1278.273 1119.016, 1282.134 1116.329, 1306.628 1098.395 L 1329.140 1081.913 1353.798 1099.895 C 1367.359 1109.786, 1378.564 1117.769, 1378.698 1117.635 C 1378.890 1117.444, 1364.988 1073.447, 1361.093 1061.917 C 1360.253 1059.432, 1361.162 1058.659, 1385.200 1041.417 L 1410.179 1023.500 1379.315 1023.236 L 1348.450 1022.972 1341.060 999.736 C 1330.646 966.991, 1329.427 963.497, 1328.788 964.559 M 618.109 1172 C 614.689 1182.725, 610.415 1196, 608.612 1201.500 L 605.335 1211.500 574.280 1212 L 543.225 1212.500 568.112 1230.362 C 581.801 1240.186, 593 1248.577, 593 1249.009 C 593 1249.441, 588.919 1262.484, 583.931 1277.995 C 578.943 1293.505, 575.017 1306.350, 575.205 1306.538 C 575.393 1306.727, 586.557 1298.848, 600.013 1289.031 L 624.479 1271.181 628.989 1274.462 C 631.470 1276.266, 642.486 1284.302, 653.468 1292.319 C 664.451 1300.337, 673.595 1306.739, 673.787 1306.546 C 673.980 1306.353, 670.057 1293.554, 665.069 1278.104 C 660.081 1262.653, 656 1249.609, 656 1249.118 C 656 1248.626, 667.199 1240.186, 680.888 1230.362 L 705.775 1212.500 674.659 1212 L 643.544 1211.500 634.506 1183.500 C 629.535 1168.100, 625.212 1154.825, 624.898 1154 C 624.584 1153.175, 621.529 1161.275, 618.109 1172 M 1135.784 1165.250 C 1133.776 1171.438, 1129.569 1184.481, 1126.436 1194.236 L 1120.738 1211.972 1089.772 1212.236 L 1058.805 1212.500 1083.062 1230 C 1096.404 1239.625, 1107.677 1247.739, 1108.115 1248.031 C 1108.552 1248.323, 1104.701 1261.598, 1099.557 1277.531 C 1094.413 1293.464, 1090.334 1306.638, 1090.492 1306.807 C 1090.651 1306.976, 1101.581 1299.213, 1114.781 1289.557 C 1127.982 1279.901, 1139.330 1272, 1140 1272 C 1140.670 1272, 1152.018 1279.901, 1165.219 1289.557 C 1178.419 1299.213, 1189.341 1306.976, 1189.489 1306.807 C 1189.638 1306.638, 1185.556 1293.465, 1180.420 1277.534 C 1175.283 1261.603, 1171.429 1248.328, 1171.855 1248.034 C 1172.281 1247.740, 1183.565 1239.625, 1196.930 1230 L 1221.229 1212.500 1190.210 1212.236 L 1159.191 1211.972 1153.533 1194.236 C 1143.073 1161.449, 1140.568 1154, 1140 1154 C 1139.689 1154, 1137.792 1159.063, 1135.784 1165.250 M 875.055 1243.074 C 871.111 1255.409, 866.750 1268.981, 865.365 1273.236 L 862.845 1280.971 832.207 1281.236 L 801.568 1281.500 825.808 1298.883 C 839.139 1308.444, 850.245 1316.588, 850.488 1316.981 C 850.855 1317.575, 841.353 1348.365, 834.042 1370.273 C 832.829 1373.908, 832.557 1375.775, 833.308 1375.313 C 833.963 1374.910, 845.205 1366.750, 858.290 1357.181 L 882.079 1339.783 885.790 1342.362 C 887.830 1343.781, 898.950 1351.873, 910.500 1360.346 C 922.050 1368.818, 931.630 1375.639, 931.789 1375.503 C 932.062 1375.269, 914.173 1319.188, 913.410 1317.886 C 913.212 1317.548, 924.249 1309.223, 937.937 1299.386 L 962.824 1281.500 932.697 1281.235 C 916.127 1281.089, 902.248 1280.639, 901.855 1280.235 C 901.461 1279.831, 896.884 1266.259, 891.683 1250.074 L 882.226 1220.649 875.055 1243.074" stroke="none" fill="#f9d951" fill-rule="evenodd"/><path d="M 833.500 22.081 C 646.063 34.454, 471.630 113.334, 339.482 245.482 C 228.351 356.613, 154.929 497.153, 126.584 653 C 114.469 719.608, 111.558 797.225, 118.575 866.500 C 140.165 1079.620, 250.583 1274.895, 422.024 1403.152 C 542.414 1493.216, 684.079 1545.235, 835.483 1554.972 C 870.107 1557.199, 924.266 1556.095, 960.500 1552.425 C 1173.620 1530.835, 1368.895 1420.417, 1497.152 1248.976 C 1580.788 1137.179, 1632.401 1004.932, 1646.425 866.500 C 1651.363 817.752, 1651.363 759.248, 1646.425 710.500 C 1624.835 497.380, 1514.417 302.105, 1342.976 173.848 C 1222.586 83.784, 1080.921 31.765, 929.517 22.028 C 911.341 20.859, 851.515 20.892, 833.500 22.081 M 881.733 189.683 C 881.476 190.133, 880.559 192.750, 879.694 195.500 C 878.829 198.250, 874.700 211.181, 870.517 224.236 L 862.912 247.972 831.950 248.236 L 800.988 248.500 825.970 266.420 C 847.217 281.660, 850.875 284.650, 850.430 286.421 C 850.143 287.567, 845.948 300.653, 841.108 315.502 C 836.268 330.351, 832.419 342.643, 832.555 342.818 C 832.692 342.993, 843.919 335.028, 857.504 325.118 L 882.205 307.099 890.853 313.413 C 895.609 316.885, 906.663 324.963, 915.418 331.362 C 924.172 337.762, 931.466 342.868, 931.625 342.708 C 931.785 342.549, 927.726 329.399, 922.607 313.486 L 913.299 284.553 915.399 282.958 C 916.555 282.080, 927.818 273.969, 940.430 264.931 L 963.360 248.500 932.377 248.236 L 901.394 247.972 892.074 218.736 C 886.949 202.656, 882.630 189.358, 882.477 189.183 C 882.325 189.009, 881.990 189.234, 881.733 189.683 M 1130.976 287.722 L 1121.500 317.326 1090 317.112 L 1058.500 316.899 1065.500 322.042 C 1069.350 324.870, 1080.713 333.078, 1090.750 340.282 C 1100.787 347.486, 1109 353.924, 1109 354.590 C 1109 355.256, 1104.973 368.318, 1100.051 383.618 C 1095.130 398.918, 1091.266 411.600, 1091.466 411.800 C 1091.666 412, 1102.656 404.252, 1115.888 394.582 C 1129.120 384.912, 1140.306 377, 1140.746 377 C 1141.186 377, 1152.306 384.866, 1165.459 394.480 C 1178.611 404.095, 1189.556 411.778, 1189.780 411.554 C 1190.004 411.330, 1186.059 398.250, 1181.013 382.487 C 1175.968 366.724, 1171.988 353.711, 1172.170 353.569 C 1172.351 353.426, 1183.719 345.253, 1197.432 335.405 L 1222.363 317.500 1191.015 317 L 1159.667 316.500 1150.428 287.678 C 1145.346 271.826, 1141.023 258.690, 1140.820 258.487 C 1140.617 258.284, 1136.187 271.440, 1130.976 287.722 M 621.596 264.750 C 620.623 267.913, 616.471 280.956, 612.370 293.736 L 604.912 316.972 573.706 317.236 L 542.500 317.500 567.500 335.422 C 581.250 345.279, 592.630 353.434, 592.789 353.544 C 593.086 353.750, 575.118 409.912, 574.326 411.250 C 573.005 413.482, 577.687 410.353, 599.429 394.475 C 612.590 384.864, 623.720 377, 624.163 377 C 624.606 377, 635.801 384.925, 649.040 394.611 C 662.279 404.298, 673.256 412.060, 673.433 411.861 C 673.610 411.663, 669.608 398.675, 664.539 383 C 659.469 367.325, 655.467 354.218, 655.644 353.873 C 655.821 353.528, 666.781 345.485, 680 336 C 693.219 326.515, 704.278 318.360, 704.576 317.877 C 704.882 317.382, 691.668 317, 674.194 317 L 643.271 317 637.569 299.250 C 626.246 264.003, 624.556 259, 623.965 259 C 623.635 259, 622.569 261.587, 621.596 264.750 M 432.709 454.543 C 431.283 458.919, 426.917 472.506, 423.006 484.736 L 415.897 506.971 385.262 507.236 L 354.626 507.500 378.814 524.846 C 392.117 534.387, 403.218 542.544, 403.483 542.973 C 403.882 543.617, 395.112 572.042, 387.039 596.273 C 385.826 599.912, 385.556 601.776, 386.308 601.313 C 386.963 600.910, 398.181 592.768, 411.235 583.221 C 426.264 572.230, 435.434 566.136, 436.235 566.607 C 436.931 567.017, 448.188 575.142, 461.250 584.663 C 474.313 594.184, 484.993 601.642, 484.985 601.237 C 484.977 600.832, 480.768 587.597, 475.631 571.828 L 466.292 543.155 491.047 525.328 L 515.802 507.500 485.234 507 L 454.665 506.500 450.389 493.500 C 448.037 486.350, 443.680 472.869, 440.708 463.543 L 435.302 446.586 432.709 454.543 M 1328.788 447.559 C 1328.476 448.076, 1327.021 452.325, 1325.554 457 C 1324.087 461.675, 1319.960 474.606, 1316.382 485.736 L 1309.876 505.972 1279.052 506.236 L 1248.229 506.500 1272.688 524 C 1286.141 533.625, 1297.343 541.801, 1297.583 542.169 C 1297.951 542.735, 1291.220 564.359, 1281.521 593.771 C 1280.109 598.052, 1279.612 600.755, 1280.312 600.345 C 1280.965 599.962, 1292.221 591.834, 1305.324 582.283 L 1329.149 564.917 1353.813 582.887 C 1367.379 592.770, 1378.590 600.744, 1378.727 600.607 C 1378.921 600.412, 1365.313 557.439, 1361.087 544.904 C 1360.243 542.401, 1361.110 541.664, 1385.191 524.404 L 1410.170 506.500 1379.310 506.236 L 1348.450 505.972 1341.060 482.736 C 1330.646 449.991, 1329.427 446.497, 1328.788 447.559 M 1387.997 733.750 L 1378.496 763.500 1347.752 764 L 1317.009 764.500 1341.868 782.327 L 1366.726 800.153 1357.383 828.827 C 1352.244 844.597, 1348.143 857.774, 1348.270 858.109 C 1348.396 858.443, 1357.275 852.252, 1368 844.350 C 1378.725 836.449, 1389.832 828.358, 1392.683 826.372 L 1397.866 822.760 1422.036 840.444 C 1435.329 850.170, 1446.415 857.918, 1446.672 857.662 C 1446.928 857.405, 1443.057 844.508, 1438.070 829 C 1433.083 813.492, 1429.220 800.453, 1429.485 800.025 C 1429.749 799.596, 1440.862 791.428, 1454.178 781.873 L 1478.390 764.500 1447.753 764.236 L 1417.117 763.971 1409.501 740.236 C 1398.814 706.927, 1397.859 704, 1397.668 704 C 1397.575 704, 1393.223 717.388, 1387.997 733.750 M 356.578 733.750 C 351.732 749.013, 347.406 762.167, 346.964 762.983 C 346.276 764.252, 341.732 764.427, 315.330 764.202 L 284.500 763.938 286.819 765.936 C 288.095 767.034, 299.215 775.163, 311.531 784 C 323.847 792.838, 334.105 800.390, 334.326 800.784 C 334.546 801.178, 330.586 814.325, 325.525 830 C 320.463 845.675, 316.455 858.668, 316.617 858.873 C 316.779 859.078, 327.596 851.444, 340.654 841.908 C 353.713 832.373, 365.113 824.571, 365.989 824.571 C 366.865 824.571, 378.267 832.376, 391.327 841.916 C 404.387 851.456, 415.209 859.089, 415.375 858.880 C 415.542 858.671, 411.537 845.675, 406.475 830 C 401.414 814.325, 397.454 801.178, 397.674 800.784 C 397.895 800.390, 408.153 792.838, 420.469 784 C 432.785 775.163, 443.905 767.063, 445.181 766 C 447.483 764.080, 447.276 764.066, 416.339 764.033 L 385.178 764 378.524 743.250 C 374.865 731.837, 370.682 718.788, 369.229 714.250 C 367.776 709.712, 366.318 706, 365.988 706 C 365.658 706, 361.423 718.487, 356.578 733.750 M 655.007 734.102 C 632.614 737.543, 614.115 750.786, 604.545 770.227 C 596.269 787.039, 593.519 804.960, 596.359 823.579 C 600.887 853.267, 616.267 873.811, 640.569 882.633 C 648.833 885.632, 662.257 888, 671 888 C 690.241 888, 716.600 879.498, 729.864 869.013 L 735 864.953 735 834.977 L 735 805 702.500 805 L 670 805 670 818 L 670 831 687.036 831 L 704.072 831 703.786 840.750 L 703.500 850.500 695 854.788 C 663.766 870.544, 634.500 858.021, 628.431 826.304 C 626.802 817.787, 626.550 801.646, 627.933 794.353 C 631.651 774.748, 644.117 762.483, 662.983 759.868 C 680.218 757.480, 694.989 764.485, 701.064 777.927 C 703.166 782.579, 703.703 783.096, 705.963 782.640 C 707.358 782.359, 714.013 781.109, 720.750 779.863 C 727.943 778.532, 733 777.126, 733 776.455 C 733 773.612, 728.624 763.019, 725.507 758.319 C 717.899 746.847, 707.421 739.565, 693.314 735.947 C 684.066 733.575, 664.552 732.636, 655.007 734.102 M 762 810.428 L 762 885 797.750 884.983 C 837.815 884.963, 842.302 884.453, 854.852 878.493 C 869.117 871.719, 879.851 857.205, 885.172 837.500 C 887 830.729, 887.337 826.734, 887.367 811.500 C 887.397 796.140, 887.075 792.186, 885.170 784.540 C 879.406 761.405, 865.789 744.997, 847.240 738.835 C 840.811 736.699, 838.690 736.579, 801.250 736.226 L 762 735.856 762 810.428 M 913 810.500 L 913 885 928.500 885 L 944 885 944 857.127 L 944 829.255 966.750 828.734 C 991.368 828.169, 997.684 827.132, 1005.937 822.296 C 1025.356 810.918, 1032.892 785.496, 1023.940 761.568 C 1019.414 749.472, 1006.103 739.248, 992 737.035 C 988.425 736.474, 969.188 736.012, 949.250 736.008 L 913 736 913 810.500 M 1052 810.427 L 1052 885 1067.500 885 L 1083 885 1083 853.853 L 1083 822.706 1092.367 823.265 C 1108.683 824.238, 1110.177 825.596, 1134.096 861.204 L 1150.080 885 1168.123 885 C 1178.047 885, 1186.017 884.616, 1185.833 884.147 C 1184.586 880.954, 1158.881 841.237, 1154.666 835.990 C 1151.798 832.421, 1146.465 827.267, 1142.815 824.537 L 1136.179 819.575 1142.339 817.940 C 1158.555 813.638, 1167.260 806.126, 1172.129 792.233 C 1173.765 787.565, 1174.077 784.542, 1173.810 775.961 C 1173.515 766.448, 1173.167 764.781, 1170.235 758.825 C 1164.833 747.853, 1157.649 741.858, 1145.500 738.183 C 1141.462 736.961, 1131.984 736.591, 1096.250 736.262 L 1052 735.853 1052 810.427 M 793 810.494 L 793 860.292 812.250 859.723 C 833.786 859.086, 838.174 858.111, 844.718 852.509 C 849.484 848.430, 853.415 840.127, 855.047 830.695 C 856.698 821.154, 855.795 791.154, 853.655 784.455 C 850.256 773.810, 843.110 766.342, 833.579 763.474 C 830.913 762.671, 821.368 761.791, 810.981 761.390 L 793 760.695 793 810.494 M 944 782.094 L 944 803.187 962.831 802.844 L 981.662 802.500 986.503 799.500 C 998.953 791.786, 999.420 774.161, 987.398 765.712 C 983.897 763.252, 981.894 762.714, 973.406 761.956 C 967.958 761.469, 959.112 761.055, 953.750 761.036 L 944 761 944 782.094 M 1083 779.970 L 1083 799.236 1105.752 798.843 C 1127.546 798.468, 1128.715 798.347, 1133.502 795.976 C 1137.341 794.074, 1139.022 792.465, 1140.750 789.038 C 1145.378 779.861, 1142.417 768.643, 1134.178 764.135 C 1130.078 761.892, 1128.650 761.743, 1106.428 761.237 L 1083 760.705 1083 779.970 M 434.841 964.506 C 434.523 965.053, 433.782 967.075, 433.196 969 C 432.609 970.925, 428.483 983.856, 424.026 997.736 L 415.924 1022.972 385.130 1023.236 L 354.336 1023.500 379.168 1041.361 C 392.826 1051.185, 403.992 1059.510, 403.981 1059.861 C 403.971 1060.213, 399.746 1073.438, 394.593 1089.250 C 389.440 1105.063, 385.394 1118, 385.601 1118 C 385.809 1118, 397.040 1109.880, 410.560 1099.956 L 435.141 1081.912 444.820 1088.908 C 450.144 1092.756, 461.250 1100.836, 469.500 1106.865 C 477.750 1112.894, 484.619 1117.710, 484.764 1117.566 C 484.909 1117.423, 480.937 1104.602, 475.936 1089.076 C 470.936 1073.550, 467.062 1060.281, 467.327 1059.590 C 467.593 1058.898, 478.697 1050.495, 492.003 1040.916 L 516.197 1023.500 485.348 1023 L 454.500 1022.500 453.167 1018.500 C 452.434 1016.300, 448.141 1003.028, 443.627 989.006 C 439.113 974.984, 435.160 963.959, 434.841 964.506 M 1328.788 964.559 C 1328.476 965.076, 1327.021 969.325, 1325.554 974 C 1324.087 978.675, 1319.960 991.606, 1316.382 1002.736 L 1309.876 1022.972 1279.051 1023.236 L 1248.226 1023.500 1273.139 1041.381 C 1294.919 1057.013, 1297.971 1059.528, 1297.409 1061.381 C 1294.505 1070.956, 1279.632 1116.716, 1279.168 1117.500 C 1278.273 1119.016, 1282.134 1116.329, 1306.628 1098.395 L 1329.140 1081.913 1353.798 1099.895 C 1367.359 1109.786, 1378.564 1117.769, 1378.698 1117.635 C 1378.890 1117.444, 1364.988 1073.447, 1361.093 1061.917 C 1360.253 1059.432, 1361.162 1058.659, 1385.200 1041.417 L 1410.179 1023.500 1379.315 1023.236 L 1348.450 1022.972 1341.060 999.736 C 1330.646 966.991, 1329.427 963.497, 1328.788 964.559 M 618.109 1172 C 614.689 1182.725, 610.415 1196, 608.612 1201.500 L 605.335 1211.500 574.280 1212 L 543.225 1212.500 568.112 1230.362 C 581.801 1240.186, 593 1248.577, 593 1249.009 C 593 1249.441, 588.919 1262.484, 583.931 1277.995 C 578.943 1293.505, 575.017 1306.350, 575.205 1306.538 C 575.393 1306.727, 586.557 1298.848, 600.013 1289.031 L 624.479 1271.181 628.989 1274.462 C 631.470 1276.266, 642.486 1284.302, 653.468 1292.319 C 664.451 1300.337, 673.595 1306.739, 673.787 1306.546 C 673.980 1306.353, 670.057 1293.554, 665.069 1278.104 C 660.081 1262.653, 656 1249.609, 656 1249.118 C 656 1248.626, 667.199 1240.186, 680.888 1230.362 L 705.775 1212.500 674.659 1212 L 643.544 1211.500 634.506 1183.500 C 629.535 1168.100, 625.212 1154.825, 624.898 1154 C 624.584 1153.175, 621.529 1161.275, 618.109 1172 M 1135.784 1165.250 C 1133.776 1171.438, 1129.569 1184.481, 1126.436 1194.236 L 1120.738 1211.972 1089.772 1212.236 L 1058.805 1212.500 1083.062 1230 C 1096.404 1239.625, 1107.677 1247.739, 1108.115 1248.031 C 1108.552 1248.323, 1104.701 1261.598, 1099.557 1277.531 C 1094.413 1293.464, 1090.334 1306.638, 1090.492 1306.807 C 1090.651 1306.976, 1101.581 1299.213, 1114.781 1289.557 C 1127.982 1279.901, 1139.330 1272, 1140 1272 C 1140.670 1272, 1152.018 1279.901, 1165.219 1289.557 C 1178.419 1299.213, 1189.341 1306.976, 1189.489 1306.807 C 1189.638 1306.638, 1185.556 1293.465, 1180.420 1277.534 C 1175.283 1261.603, 1171.429 1248.328, 1171.855 1248.034 C 1172.281 1247.740, 1183.565 1239.625, 1196.930 1230 L 1221.229 1212.500 1190.210 1212.236 L 1159.191 1211.972 1153.533 1194.236 C 1143.073 1161.449, 1140.568 1154, 1140 1154 C 1139.689 1154, 1137.792 1159.063, 1135.784 1165.250 M 875.055 1243.074 C 871.111 1255.409, 866.750 1268.981, 865.365 1273.236 L 862.845 1280.971 832.207 1281.236 L 801.568 1281.500 825.808 1298.883 C 839.139 1308.444, 850.245 1316.588, 850.488 1316.981 C 850.855 1317.575, 841.353 1348.365, 834.042 1370.273 C 832.829 1373.908, 832.557 1375.775, 833.308 1375.313 C 833.963 1374.910, 845.205 1366.750, 858.290 1357.181 L 882.079 1339.783 885.790 1342.362 C 887.830 1343.781, 898.950 1351.873, 910.500 1360.346 C 922.050 1368.818, 931.630 1375.639, 931.789 1375.503 C 932.062 1375.269, 914.173 1319.188, 913.410 1317.886 C 913.212 1317.548, 924.249 1309.223, 937.937 1299.386 L 962.824 1281.500 932.697 1281.235 C 916.127 1281.089, 902.248 1280.639, 901.855 1280.235 C 901.461 1279.831, 896.884 1266.259, 891.683 1250.074 L 882.226 1220.649 875.055 1243.074" stroke="none" fill="#04349b" fill-rule="evenodd"/></svg>